<svg xmlns="http://www.w3.org/2000/svg" viewBox="0 0 360 360">
  <path 
    fill="#ffffff" 
    d="M41.205 180.956c6.403-13.859 19.841-22.508 34.857-22.435 13.248.066 19.174 3.66 39.312 23.853 10.392 10.422 18.708 17.687 20.24 17.685 15.697-.023 1.823-139.385 12.848-159.957 14.49-27.039 52.313-27.061 66.902-.04 11.669 21.613-5.115 160.361 11.075 160.59 1.712.026 9.331-6.488 20.398-17.436 20.135-19.917 26.039-23.396 39.56-23.307 15.483.1 29.77 9.932 35.093 24.149 3.445 9.2 2.233 24.35-2.587 32.342-4.493 7.45-118.869 120.023-125.283 123.308-7.622 3.904-20.908 3.321-28.49-1.25-3.351-2.02-32.189-30.248-64.2-62.844-52-52.952-58.343-59.883-60.296-65.88-2.936-9.019-2.684-21.731.571-28.778z"
  />
</svg>